<?xml version="1.0" ?><svg viewBox="0 0 256 256" xmlns="http://www.w3.org/2000/svg"><rect fill="none" height="256" width="256"/><path d="M80,56h24a0,0,0,0,1,0,0v72a24,24,0,0,1-24,24h0a24,24,0,0,1-24-24V80A24,24,0,0,1,80,56Z" fill="none" stroke="#000" stroke-linecap="round" stroke-linejoin="round" stroke-width="12" transform="translate(184 24) rotate(90)"/><path d="M128,80H104A23.9,23.9,0,0,1,80,56h0a23.9,23.9,0,0,1,24-24h0a23.9,23.9,0,0,1,24,24Z" fill="none" stroke="#000" stroke-linecap="round" stroke-linejoin="round" stroke-width="12"/><path d="M152,32h24a0,0,0,0,1,0,0v72a24,24,0,0,1-24,24h0a24,24,0,0,1-24-24V56a24,24,0,0,1,24-24Z" fill="none" stroke="#000" stroke-linecap="round" stroke-linejoin="round" stroke-width="12" transform="translate(304 160) rotate(180)"/><path d="M176,128V104a23.9,23.9,0,0,1,24-24h0a23.9,23.9,0,0,1,24,24h0a23.9,23.9,0,0,1-24,24Z" fill="none" stroke="#000" stroke-linecap="round" stroke-linejoin="round" stroke-width="12"/><path d="M176,104h24a0,0,0,0,1,0,0v72a24,24,0,0,1-24,24h0a24,24,0,0,1-24-24V128A24,24,0,0,1,176,104Z" fill="none" stroke="#000" stroke-linecap="round" stroke-linejoin="round" stroke-width="12" transform="translate(24 328) rotate(-90)"/><path d="M128,176h24a23.9,23.9,0,0,1,24,24h0a23.9,23.9,0,0,1-24,24h0a23.9,23.9,0,0,1-24-24Z" fill="none" stroke="#000" stroke-linecap="round" stroke-linejoin="round" stroke-width="12"/><path d="M104,128h24a0,0,0,0,1,0,0v72a24,24,0,0,1-24,24h0a24,24,0,0,1-24-24V152A24,24,0,0,1,104,128Z" fill="none" stroke="#000" stroke-linecap="round" stroke-linejoin="round" stroke-width="12"/><path d="M80,128v24a23.9,23.9,0,0,1-24,24h0a23.9,23.9,0,0,1-24-24h0a23.9,23.9,0,0,1,24-24Z" fill="none" stroke="#000" stroke-linecap="round" stroke-linejoin="round" stroke-width="12"/></svg>