<?xml version="1.0" ?><svg viewBox="0 0 256 256" xmlns="http://www.w3.org/2000/svg"><rect fill="none" height="256" width="256"/><circle cx="120" cy="188" fill="none" r="20" stroke="#000" stroke-linecap="round" stroke-linejoin="round" stroke-width="12"/><line fill="none" stroke="#000" stroke-linecap="round" stroke-linejoin="round" stroke-width="12" x1="120" x2="120" y1="168" y2="48"/><path d="M240.3,80A20,20,0,0,1,212,80a20,20,0,0,0-28.3,0" fill="none" stroke="#000" stroke-linecap="round" stroke-linejoin="round" stroke-width="12"/><path d="M240.3,120a20,20,0,0,1-28.3,0,20,20,0,0,0-28.3,0" fill="none" stroke="#000" stroke-linecap="round" stroke-linejoin="round" stroke-width="12"/><path d="M88,147V48a32,32,0,0,1,64,0v99h0a52,52,0,1,1-64,0Z" fill="none" stroke="#000" stroke-linecap="round" stroke-linejoin="round" stroke-width="12"/></svg>