<?xml version="1.0" ?><svg viewBox="0 0 256 256" xmlns="http://www.w3.org/2000/svg"><rect fill="none" height="256" width="256"/><path d="M132,180l-31,31a24,24,0,0,1-34,0L45,189a24,24,0,0,1,0-34l31-31" fill="none" stroke="#000" stroke-linecap="round" stroke-linejoin="round" stroke-width="12"/><line fill="none" stroke="#000" stroke-linecap="round" stroke-linejoin="round" stroke-width="12" x1="56" x2="24" y1="200" y2="232"/><line fill="none" stroke="#000" stroke-linecap="round" stroke-linejoin="round" stroke-width="12" x1="232" x2="200" y1="24" y2="56"/><line fill="none" stroke="#000" stroke-linecap="round" stroke-linejoin="round" stroke-width="12" x1="144" x2="120" y1="144" y2="168"/><line fill="#231f20" x1="144" x2="120" y1="144" y2="168"/><line fill="none" stroke="#000" stroke-linecap="round" stroke-linejoin="round" stroke-width="12" x1="112" x2="88" y1="112" y2="136"/><line fill="#231f20" x1="112" x2="88" y1="112" y2="136"/><path d="M180,132l31-31a24,24,0,0,0,0-34L189,45a24,24,0,0,0-34,0L124,76" fill="none" stroke="#000" stroke-linecap="round" stroke-linejoin="round" stroke-width="12"/><line fill="none" stroke="#000" stroke-linecap="round" stroke-linejoin="round" stroke-width="12" x1="116" x2="188" y1="68" y2="140"/><line fill="none" stroke="#000" stroke-linecap="round" stroke-linejoin="round" stroke-width="12" x1="68" x2="140" y1="116" y2="188"/></svg>