<?xml version="1.0" ?><svg viewBox="0 0 256 256" xmlns="http://www.w3.org/2000/svg"><rect fill="none" height="256" width="256"/><path d="M165.1,200H122.9a7.8,7.8,0,0,0-5.1,1.9L72,240V200H48a8,8,0,0,1-8-8V48a8,8,0,0,1,8-8H208a8,8,0,0,1,8,8V156.3a8.1,8.1,0,0,1-2.9,6.1l-42.9,35.7A7.8,7.8,0,0,1,165.1,200Z" fill="none" stroke="#000" stroke-linecap="round" stroke-linejoin="round" stroke-width="12"/><line fill="none" stroke="#000" stroke-linecap="round" stroke-linejoin="round" stroke-width="12" x1="168" x2="168" y1="88" y2="136"/><line fill="none" stroke="#000" stroke-linecap="round" stroke-linejoin="round" stroke-width="12" x1="120" x2="120" y1="88" y2="136"/></svg>