<?xml version="1.0" ?><!DOCTYPE svg  PUBLIC '-//W3C//DTD SVG 1.1//EN'  'http://www.w3.org/Graphics/SVG/1.1/DTD/svg11.dtd'><svg enable-background="new 0 0 48 48" height="48px" id="Layer_3" version="1.1" viewBox="0 0 48 48" width="48px" xml:space="preserve" xmlns="http://www.w3.org/2000/svg" xmlns:xlink="http://www.w3.org/1999/xlink"><g><path d="M48,28.984v-9.969h-4.651c-0.56-2.177-1.46-4.215-2.668-6.039l3.118-3.119l-5.656-5.657L35.024,7.32   c-1.814-1.202-3.84-2.099-6.004-2.659V0H18.979v4.661c-2.212,0.573-4.284,1.494-6.129,2.735L9.857,4.402l-5.656,5.657l3.042,3.042   c-1.163,1.784-2.036,3.766-2.583,5.883H0v10.031h4.66c0.56,2.165,1.458,4.193,2.66,6.009l-3.118,3.118l5.656,5.656l3.119-3.118   c1.819,1.205,3.853,2.104,6.023,2.664V48h10v-4.655c2.123-0.548,4.11-1.423,5.898-2.588L38.143,44l5.656-5.656l-3.194-3.194   c1.248-1.855,2.172-3.939,2.744-6.165H48z M24,40c-8.836,0-16-7.164-16-16c0-8.837,7.164-16,16-16c8.837,0,16,7.163,16,16   C40,32.836,32.837,40,24,40z" fill="#241F20"/><path d="M24,15c-4.971,0-9,4.029-9,9s4.029,9,9,9s9-4.029,9-9S28.971,15,24,15z M24,29c-2.762,0-5-2.238-5-5   c0-2.761,2.238-5,5-5s5,2.239,5,5C29,26.762,26.762,29,24,29z" fill="#241F20"/></g></svg>