<?xml version="1.0" ?><!DOCTYPE svg  PUBLIC '-//W3C//DTD SVG 1.1//EN'  'http://www.w3.org/Graphics/SVG/1.1/DTD/svg11.dtd'><svg enable-background="new 0 0 48 48" height="48px" id="Layer_3" version="1.1" viewBox="0 0 48 48" width="48px" xml:space="preserve" xmlns="http://www.w3.org/2000/svg" xmlns:xlink="http://www.w3.org/1999/xlink"><path d="M42,22.5c-1.094,0-2.117,0.298-3,0.81V13.5h-9.81c0.512-0.883,0.81-1.906,0.81-3c0-3.313-2.687-6-6-6  s-6,2.687-6,6c0,1.094,0.298,2.117,0.81,3H9v9.81c-0.883-0.512-1.906-0.81-3-0.81c-3.313,0-6,2.687-6,6s2.687,6,6,6  c1.094,0,2.117-0.298,3-0.81v9.81h7.375h2.435c-0.512-0.883-0.81-1.906-0.81-3c0-3.313,2.687-6,6-6s6,2.687,6,6  c0,1.094-0.298,2.117-0.81,3h3.935H39v-9.81c0.883,0.512,1.906,0.81,3,0.81c3.313,0,6-2.687,6-6S45.313,22.5,42,22.5z" fill="#241F20"/></svg>