<?xml version="1.0" ?><!DOCTYPE svg  PUBLIC '-//W3C//DTD SVG 1.1//EN'  'http://www.w3.org/Graphics/SVG/1.1/DTD/svg11.dtd'><svg enable-background="new 0 0 48 48" height="48px" id="Layer_3" version="1.1" viewBox="0 0 48 48" width="48px" xml:space="preserve" xmlns="http://www.w3.org/2000/svg" xmlns:xlink="http://www.w3.org/1999/xlink"><g><path d="M20.596,18.988c1.148,0,2.512,0.362,4.093,1.086l1.398-3.525c-1.41-0.628-2.801-1.005-4.17-1.146v-2.569h-3.69v2.799   c-0.837,0.217-1.563,0.547-2.163,1.009c-1.133,0.87-1.699,2.084-1.699,3.641c0,0.833,0.131,1.554,0.396,2.162   c0.267,0.609,0.675,1.149,1.226,1.619c0.551,0.471,1.381,0.955,2.483,1.457c1.216,0.548,1.964,0.909,2.245,1.087   c0.282,0.178,0.486,0.353,0.614,0.525c0.126,0.173,0.192,0.376,0.192,0.608c0,0.369-0.158,0.67-0.473,0.906   C20.73,28.883,20.235,29,19.555,29c-0.786,0-1.648-0.127-2.587-0.377c-0.942-0.25-1.847-0.6-2.719-1.046v4.069   c0.825,0.393,1.619,0.668,2.381,0.826c0.461,0.094,1.007,0.152,1.597,0.189v2.504h3.69v-2.764c0.374-0.104,0.738-0.217,1.073-0.369   c1-0.449,1.768-1.084,2.298-1.896c0.535-0.811,0.799-1.742,0.799-2.791c0-1.141-0.284-2.086-0.852-2.837   c-0.566-0.751-1.576-1.455-3.032-2.11c-1.519-0.694-2.452-1.171-2.794-1.434c-0.342-0.262-0.512-0.559-0.512-0.891   c0-0.308,0.133-0.566,0.406-0.774C19.572,19.092,20.001,18.988,20.596,18.988z"/><path d="M46.683,17.786H44.3h-0.104V2.872H18.303h-0.207H3.26H1.318H0.075v42.257h1.243H3.26h14.837h0.207h25.893V30.215H44.3   h2.383h1.242V17.786H46.683z M39.225,40.156H18.303h-0.207H7.241H6.289H5.046v-0.102v-0.926V7.843h1.243H7.48h10.616h0.207h20.921   v9.943h-1.553c-3.433,0-6.215,2.782-6.215,6.214c0,3.433,2.782,6.215,6.215,6.215c0.053,0,0.103-0.012,0.155-0.012v0.012h1.397   V40.156z M44.3,26.486h-0.104h-0.835h-4.137h-1.397h-0.155v-0.016c-1.299-0.082-2.331-1.15-2.331-2.471   c0-1.319,1.032-2.388,2.331-2.47v-0.016h1.553h4.137h0.835H44.3V26.486z"/></g></svg>