<?xml version="1.0" ?><!DOCTYPE svg  PUBLIC '-//W3C//DTD SVG 1.1//EN'  'http://www.w3.org/Graphics/SVG/1.1/DTD/svg11.dtd'><svg enable-background="new 0 0 48 48" height="48px" id="Layer_3" version="1.1" viewBox="0 0 48 48" width="48px" xml:space="preserve" xmlns="http://www.w3.org/2000/svg" xmlns:xlink="http://www.w3.org/1999/xlink"><g><polygon fill="#241F20" points="44.687,10.621 35.996,19.312 36.01,19.325 24.162,31.174 13.979,20.992 10.678,24.294    22.351,35.967 22.339,35.978 24.129,37.768 24.14,37.757 24.151,37.768 24.949,36.97 24.957,36.978 39.31,22.625 48,13.935  "/><polygon fill="#241F20" points="13.664,30.785 3.482,20.604 0.18,23.905 11.853,35.577 11.841,35.589 13.632,37.379 13.643,37.368    13.653,37.379 14.451,36.581 14.459,36.588 16.981,34.066 13.682,30.768  "/><polygon fill="#241F20" points="24.053,26.995 28.812,22.236 37.502,13.545 34.189,10.232 25.499,18.923 25.513,18.937    20.753,23.695  "/></g></svg>