<?xml version="1.0" ?><!DOCTYPE svg  PUBLIC '-//W3C//DTD SVG 1.1//EN'  'http://www.w3.org/Graphics/SVG/1.1/DTD/svg11.dtd'><svg enable-background="new 0 0 48 48" height="48px" id="Layer_3" version="1.1" viewBox="0 0 48 48" width="48px" xml:space="preserve" xmlns="http://www.w3.org/2000/svg" xmlns:xlink="http://www.w3.org/1999/xlink"><path d="M47.938,22h-4.038C42.961,12.552,35.448,5.04,26,4.101V0h-4v4.101C12.552,5.04,5.04,12.552,4.101,22h-4.164  v4h4.164C5.04,35.448,12.552,42.961,22,43.899V48h4v-4.101C35.448,42.961,42.961,35.448,43.899,26h4.038V22z M26,39.862V38h-4v1.862  C14.766,38.958,9.042,33.234,8.138,26h1.799v-4H8.138C9.042,14.766,14.766,9.042,22,8.138V10h4V8.138  C33.234,9.042,38.958,14.766,39.861,22h-1.924v4h1.925C38.958,33.234,33.234,38.958,26,39.862z" fill="#241F20"/></svg>