<?xml version="1.0" ?><!DOCTYPE svg  PUBLIC '-//W3C//DTD SVG 1.1//EN'  'http://www.w3.org/Graphics/SVG/1.1/DTD/svg11.dtd'><svg enable-background="new 0 0 48 48" height="48px" id="Layer_3" version="1.1" viewBox="0 0 48 48" width="48px" xml:space="preserve" xmlns="http://www.w3.org/2000/svg" xmlns:xlink="http://www.w3.org/1999/xlink"><g><path d="M19.367,27.826l1.484-1.484l-2.693-2.694l-1.484,1.486c-0.864-0.572-1.828-0.999-2.858-1.267v-2.22H9.036v2.22   c-1.053,0.272-2.039,0.711-2.917,1.302l-1.425-1.425L2,26.437l1.449,1.449c-0.554,0.849-0.97,1.793-1.23,2.8H0v4.776h2.218   c0.267,1.031,0.694,1.998,1.267,2.862L2,39.809L4.693,42.5l1.485-1.484c0.866,0.573,1.834,1.002,2.867,1.269V44.5h4.761v-2.216   c1.01-0.26,1.957-0.678,2.808-1.231l1.544,1.543l2.693-2.691l-1.521-1.522c0.595-0.883,1.034-1.876,1.306-2.934h2.216v-4.747   h-2.216C20.371,29.666,19.943,28.694,19.367,27.826z M11.426,36.991c-2.163,0-3.917-1.754-3.917-3.917s1.754-3.917,3.917-3.917   s3.917,1.754,3.917,3.917S13.589,36.991,11.426,36.991z"/><path d="M0,3.5v17.147h4V7.5h27.25v5.188h3.438V7.5H44v4.575c-3.448,0.889-6,4.011-6,7.738s2.552,6.849,6,7.737v3.95h-9.312v-5.375   H31.25V31.5h-5.333v4H48v-7.95v-2.987v-0.75h-2c-2.209,0-4-1.791-4-4s1.791-4,4-4h2v-0.938v-2.8V3.5H0z"/><rect height="6.228" width="3.417" x="31.25" y="16.386"/></g></svg>