<?xml version="1.0" ?><!DOCTYPE svg  PUBLIC '-//W3C//DTD SVG 1.1//EN'  'http://www.w3.org/Graphics/SVG/1.1/DTD/svg11.dtd'><svg enable-background="new 0 0 48 48" height="48px" id="Layer_3" version="1.1" viewBox="0 0 48 48" width="48px" xml:space="preserve" xmlns="http://www.w3.org/2000/svg" xmlns:xlink="http://www.w3.org/1999/xlink"><path d="M44,36.349v-2.546v-4h-4H26V26h10.093h2.34h1.184V7.335h-1.184h-2.34h-1.146h-2.34C31.944,3.18,28.354,0,24.01,0  c-4.341,0-7.932,3.18-8.594,7.335H11.87H8.385v3.231v11.947H8.384V26H22v3.803H8H4v0.057v3.943v2.546c-2.329,0.825-4,3.04-4,5.651  c0,3.313,2.687,6,6,6s6-2.687,6-6c0-2.611-1.671-4.827-4-5.651v-2.546h4.479H22v2.546c-2.329,0.825-4,3.04-4,5.651  c0,3.313,2.687,6,6,6c3.314,0,6-2.687,6-6c0-2.611-1.671-4.827-4-5.651v-2.546h14v2.546c-2.329,0.825-4,3.04-4,5.651  c0,3.313,2.687,6,6,6c3.314,0,6-2.687,6-6C48,39.389,46.329,37.173,44,36.349z M24.01,3.631c2.356,0,4.341,1.561,4.993,3.704h-9.985  C19.67,5.192,21.654,3.631,24.01,3.631z M11.87,22.514V10.567h3.426v3.464h3.493v-3.464h10.443v3.464h3.469v-3.464h0.024h2.221  h1.146v11.947h-1.146h-2.245H11.87z"/></svg>