<?xml version="1.0" ?><!DOCTYPE svg  PUBLIC '-//W3C//DTD SVG 1.1//EN'  'http://www.w3.org/Graphics/SVG/1.1/DTD/svg11.dtd'><svg enable-background="new 0 0 48 48" height="48px" id="Layer_3" version="1.1" viewBox="0 0 48 48" width="48px" xml:space="preserve" xmlns="http://www.w3.org/2000/svg" xmlns:xlink="http://www.w3.org/1999/xlink"><g><path d="M44.531,35.859c-0.633,0-1.224,0.172-1.734,0.468v-5.671h-5.671c0.296-0.511,0.468-1.102,0.468-1.734   c0-1.916-1.553-3.469-3.469-3.469s-3.469,1.553-3.469,3.469c0,0.633,0.172,1.224,0.468,1.734h-5.671v5.671   c-0.511-0.296-1.102-0.468-1.734-0.468c-1.916,0-3.469,1.553-3.469,3.469s1.553,3.469,3.469,3.469c0.633,0,1.224-0.172,1.734-0.468   V48h4.264h1.407c-0.296-0.511-0.468-1.102-0.468-1.734c0-1.916,1.553-3.469,3.469-3.469s3.469,1.553,3.469,3.469   c0,0.633-0.172,1.224-0.468,1.734H39.4h3.396v-5.671c0.511,0.296,1.102,0.468,1.734,0.468c1.916,0,3.469-1.553,3.469-3.469   S46.447,35.859,44.531,35.859z" fill="#241F20"/><path d="M3.568,17.75h35.677v9.209h3.567V17.75v-3.568V3.568h-8.919V0h-3.568v3.568H12.487V0H8.919v3.568H0v10.614   v3.568v25.062h17.312v-3.567H3.568V17.75z M3.568,7.135h5.352v3.568h3.567V7.135h17.838v3.568h3.568V7.135h5.352v7.047H3.568V7.135   z" fill="#241F20"/></g></svg>