<?xml version="1.0" ?><!DOCTYPE svg  PUBLIC '-//W3C//DTD SVG 1.1//EN'  'http://www.w3.org/Graphics/SVG/1.1/DTD/svg11.dtd'><svg enable-background="new 0 0 48 48" height="48px" id="Layer_3" version="1.1" viewBox="0 0 48 48" width="48px" xml:space="preserve" xmlns="http://www.w3.org/2000/svg" xmlns:xlink="http://www.w3.org/1999/xlink"><g><path d="M38,4V0h-4v4H14V0h-4v4H0v11.9v4V48h48V19.9v-4V4H38z M44,44H4V19.9h40V44z M44,15.9H4V8h6v4h4V8h20v4h4V8   h6V15.9z" fill="#241F20"/><polygon fill="#241F20" points="17.491,42.015 24,38.518 30.508,42.015 29.182,34.623 34.773,29.634 27.219,28.681 24,22.039    20.784,28.697 13.227,29.614 18.708,34.721  "/></g></svg>