<?xml version="1.0" ?><!DOCTYPE svg  PUBLIC '-//W3C//DTD SVG 1.1//EN'  'http://www.w3.org/Graphics/SVG/1.1/DTD/svg11.dtd'><svg enable-background="new 0 0 48 48" height="48px" id="Layer_3" version="1.1" viewBox="0 0 48 48" width="48px" xml:space="preserve" xmlns="http://www.w3.org/2000/svg" xmlns:xlink="http://www.w3.org/1999/xlink"><g><path d="M41.856,33.175l-3.41,3.41l-2.625-0.397c0,0-0.395-2.658-0.405-2.647l3.403-3.402   c-0.766-0.346-1.612-0.543-2.505-0.543c-3.362,0-6.087,2.725-6.087,6.085c0,0.895,0.198,1.74,0.544,2.505l-1.171,1.172   c0.304,0.578,1.284,2.203,3.027,3.048l1.182-1.182c0.765,0.346,1.61,0.543,2.505,0.543c3.36,0,6.085-2.725,6.085-6.086   C42.399,34.787,42.202,33.939,41.856,33.175z" fill="#241F20"/><rect fill="#241F20" height="3.579" width="19.684" x="7.158" y="8.834"/><rect fill="#241F20" height="3.579" width="19.684" x="7.158" y="16.16"/><path d="M36,24c-6.627,0-12,5.373-12,12s5.373,12,12,12s12-5.373,12-12S42.627,24,36,24z M36,44.944   c-4.971,0-9-4.029-9-9s4.029-9,9-9s9,4.029,9,9S40.971,44.944,36,44.944z" fill="#241F20"/><path d="M3.579,39.368V3.579h26.842v18.505c1.131-0.454,2.331-0.769,3.579-0.936V0H0v42.947h22.713   c-0.585-1.117-1.03-2.318-1.319-3.579H3.579z" fill="#241F20"/><path d="M7.158,34.056H21.14c0.162-1.248,0.474-2.447,0.923-3.579H7.158V34.056z" fill="#241F20"/><path d="M26.842,24.139v-0.875H7.158v3.579h16.981C24.922,25.829,25.829,24.922,26.842,24.139z" fill="#241F20"/></g></svg>