<?xml version="1.0" ?><!DOCTYPE svg  PUBLIC '-//W3C//DTD SVG 1.1//EN'  'http://www.w3.org/Graphics/SVG/1.1/DTD/svg11.dtd'><svg enable-background="new 0 0 48 48" height="48px" id="Layer_4" version="1.1" viewBox="0 0 48 48" width="48px" xml:space="preserve" xmlns="http://www.w3.org/2000/svg" xmlns:xlink="http://www.w3.org/1999/xlink"><g><polygon fill="#241F20" points="22,8.791 22,22.333 22,24.333 22,26.334 34.666,26.334 34.666,22.333 26,22.333 26,8.791  "/><path d="M42.888,29.983c-0.444,1.398-1.033,2.77-1.812,4.087c-5.562,9.431-17.719,12.563-27.149,6.999   c-1.304-0.771-2.474-1.675-3.531-2.671l4.868-1.41L7.382,32.77l-4.544,7.813l3.031-0.878c1.657,1.915,3.635,3.603,5.935,4.959   c11.415,6.735,26.133,2.942,32.867-8.474c1.392-2.357,2.328-4.859,2.847-7.4L42.888,29.983z" fill="#241F20"/><path d="M6.927,13.918c5.565-9.43,17.721-12.563,27.151-6.999c2.014,1.188,3.713,2.692,5.127,4.391L34.8,12.949   l8.302,3.573l3.822-8.081l-3.597,1.335c-1.862-2.537-4.245-4.752-7.129-6.452c-11.415-6.737-26.13-2.944-32.866,8.472   c-1.837,3.112-2.885,6.47-3.214,9.845l4.384-1.131C4.906,18.249,5.69,16.014,6.927,13.918z" fill="#241F20"/></g></svg>