<?xml version="1.0" ?><!DOCTYPE svg  PUBLIC '-//W3C//DTD SVG 1.1//EN'  'http://www.w3.org/Graphics/SVG/1.1/DTD/svg11.dtd'><svg enable-background="new 0 0 48 48" height="48px" version="1.1" viewBox="0 0 48 48" width="48px" xml:space="preserve" xmlns="http://www.w3.org/2000/svg" xmlns:xlink="http://www.w3.org/1999/xlink"><g id="Guides"/><g id="Layer_4"><g><path d="M23.493,33.127c-1.375,0-2.623-0.445-3.514-0.934l-0.635,2.479c0.805,0.465,2.18,0.846,3.598,0.91v2.012    h2.076v-2.16c2.436-0.422,3.768-2.033,3.768-3.918c0-1.904-1.016-3.068-3.535-3.957c-1.799-0.68-2.539-1.122-2.539-1.821    c0-0.593,0.443-1.186,1.818-1.186c1.525,0,2.5,0.487,3.049,0.72l0.615-2.392c-0.699-0.339-1.652-0.635-3.07-0.699v-1.863H23.05    v2.011c-2.266,0.445-3.578,1.906-3.578,3.768c0,2.054,1.545,3.112,3.811,3.876c1.566,0.529,2.244,1.037,2.244,1.842    C25.526,32.66,24.7,33.127,23.493,33.127z" fill="#241F20"/><path d="M41.739,30.326c0-2.078-0.377-4.063-1.035-5.916l0.017-0.007c0,0-0.107-0.336-0.356-0.919    c-0.018-0.04-0.035-0.079-0.053-0.118c-0.163-0.375-0.382-0.837-0.665-1.382c-0.027-0.05-0.054-0.099-0.081-0.148    c-1.585-2.988-5.071-8.111-11.988-12.81L33.739,0h-0.679H14.939h-0.679l6.162,9.025c-6.917,4.699-10.403,9.822-11.988,12.81    c-0.027,0.049-0.054,0.099-0.081,0.148c-0.283,0.545-0.502,1.008-0.665,1.383c-0.018,0.039-0.035,0.078-0.053,0.117    c-0.249,0.584-0.356,0.92-0.356,0.92l0.017,0.008c-0.658,1.852-1.035,3.837-1.035,5.915c0,9.311,7.206,16.923,16.342,17.606    c0.27,0.023,0.544,0.031,0.816,0.041C23.592,47.979,23.761,48,23.935,48c0.022,0,0.043-0.003,0.065-0.003S24.043,48,24.065,48    c0.174,0,0.343-0.021,0.515-0.026c0.273-0.01,0.548-0.018,0.817-0.041C34.534,47.249,41.739,39.637,41.739,30.326z M10.094,29.917    c0.208-4.018,2.69-8.068,5.521-11.434c1.449-1.609,3.007-3.2,4.37-4.542c1.873-1.726,3.426-2.929,4.016-3.373    c0.59,0.443,2.144,1.647,4.017,3.374c1.363,1.342,2.921,2.933,4.37,4.542c2.829,3.365,5.312,7.416,5.52,11.433    c0.041,2.125-0.292,10.834-11.584,14.042c-0.665,0.105-1.452,0.198-2.322,0.233c-0.87-0.035-1.657-0.128-2.322-0.233    C10.386,40.751,10.053,32.042,10.094,29.917z" fill="#241F20"/></g></g></svg>