<?xml version="1.0" ?><!DOCTYPE svg  PUBLIC '-//W3C//DTD SVG 1.1//EN'  'http://www.w3.org/Graphics/SVG/1.1/DTD/svg11.dtd'><svg enable-background="new 0 0 48 48" height="48px" version="1.1" viewBox="0 0 48 48" width="48px" xml:space="preserve" xmlns="http://www.w3.org/2000/svg" xmlns:xlink="http://www.w3.org/1999/xlink"><g id="Layer_3"><g><path d="M37.391,13.583l-0.004,0.003c0.001-0.063,0.007-0.126,0.007-0.19C37.394,5.997,31.396,0,23.999,0    C16.6,0,10.603,5.997,10.603,13.396c0,0.023,0.002,0.045,0.003,0.068c-0.004,0.087-0.005,0.269,0.02,0.564    c0.089,1.904,0.576,3.701,1.38,5.313c0.509,1.406,1.197,3.098,2.137,5.124c1.749,3.591,2.539,7.176,2.6,9.415v0.445h14.511v-0.185    c0.047-2.233,0.837-5.86,2.604-9.489c1.104-2.382,1.857-4.293,2.382-5.828c0.592-1.329,0.971-2.771,1.1-4.287    C37.423,13.873,37.391,13.583,37.391,13.583z M33.81,15.536c0,0.003,0.003,0.006,0.003,0.009    c-0.021,0.147-0.091,0.396-0.182,0.687c-0.034,0.119-0.074,0.236-0.113,0.354c-0.694,2.056-2.438,6.208-3.537,8.782    c0.02-0.01,0.037-0.021,0.057-0.03c-0.752,1.546-1.824,3.972-2.043,5.639h-7.969c-0.149-1.583-1.17-3.968-1.942-5.579    c0.017,0.008,0.033,0.018,0.05,0.026c-0.778-1.826-2.296-5.413-3.202-7.724c-0.254-0.535-0.462-1.094-0.62-1.675    c-0.05-0.154-0.086-0.281-0.1-0.356c-0.002-0.009,0.002-0.017,0.001-0.026c-0.166-0.724-0.262-1.474-0.262-2.248    c0-5.549,4.499-10.047,10.047-10.047c5.547,0,10.045,4.498,10.045,10.047C34.044,14.131,33.961,14.846,33.81,15.536z" fill="#241F20"/><rect fill="#241F20" height="3.349" width="14.511" x="16.743" y="36.559"/><path d="M31.255,41.954H16.744v3.349h-0.009C18.688,46.98,21.222,48,23.999,48c2.776,0,5.309-1.02,7.263-2.697    h-0.007V41.954z" fill="#241F20"/><path d="M25.105,14.631c-1.677-0.631-2.37-1.046-2.37-1.697c0-0.553,0.416-1.106,1.699-1.106    c1.421,0,2.329,0.455,2.842,0.671l0.571-2.229c-0.649-0.316-1.539-0.592-2.861-0.652V7.882h-1.933v1.875    c-2.112,0.415-3.335,1.776-3.335,3.513c0,1.914,1.441,2.901,3.552,3.611c1.462,0.493,2.093,0.967,2.093,1.717    c0,0.79-0.77,1.223-1.894,1.223c-1.284,0-2.449-0.415-3.277-0.868l-0.593,2.309c0.75,0.434,2.032,0.79,3.355,0.849v1.875h1.935    v-2.013c2.27-0.395,3.513-1.895,3.513-3.651C28.401,16.546,27.454,15.46,25.105,14.631z" fill="#241F20"/></g></g></svg>