<?xml version="1.0" ?><!DOCTYPE svg  PUBLIC '-//W3C//DTD SVG 1.1//EN'  'http://www.w3.org/Graphics/SVG/1.1/DTD/svg11.dtd'><svg enable-background="new 0 0 48 48" height="48px" id="Layer_3" version="1.1" viewBox="0 0 48 48" width="48px" xml:space="preserve" xmlns="http://www.w3.org/2000/svg" xmlns:xlink="http://www.w3.org/1999/xlink"><g><path d="M32.446,0.083h-2.562H10.734H5.967v19.059v23.992v4.783h4.767h31.107v-3.5v-1.283V19.142V16.5v-4.458V9.479L32.446,0.083z    M37.059,16.5v2.642v23.992H10.75h-0.016V19.142h0.016V4.867h19.134v7.175h7.175V16.5z"/><path d="M25.494,23.238c-2.269-0.854-3.204-1.416-3.204-2.296c0-0.748,0.562-1.496,2.297-1.496c1.924,0,3.151,0.614,3.844,0.909   l0.773-3.018c-0.879-0.427-2.082-0.801-3.871-0.882v-2.349h-2.616v2.536c-2.857,0.561-4.512,2.403-4.512,4.753   c0,2.59,1.948,3.924,4.806,4.886c1.976,0.667,2.831,1.308,2.831,2.323c0,1.067-1.042,1.654-2.565,1.654   c-1.735,0-3.311-0.561-4.432-1.174l-0.801,3.124c1.014,0.587,2.75,1.068,4.539,1.147v2.535h2.616v-2.721   c3.07-0.536,4.752-2.563,4.752-4.939C29.953,25.828,28.672,24.36,25.494,23.238z"/></g></svg>