<?xml version="1.0" ?><!DOCTYPE svg  PUBLIC '-//W3C//DTD SVG 1.1//EN'  'http://www.w3.org/Graphics/SVG/1.1/DTD/svg11.dtd'><svg enable-background="new 0 0 48 48" height="48px" id="Layer_3" version="1.1" viewBox="0 0 48 48" width="48px" xml:space="preserve" xmlns="http://www.w3.org/2000/svg" xmlns:xlink="http://www.w3.org/1999/xlink"><g><path d="M36.75,13.547V4H42V0H6v4h5.25v8.354v1.043v0.352l10.185,10.168L11.25,34.085v0.351V34.5V35v0.953V44H6v4h36v-4h-5.25   v-8.734V34.5v-0.24L26.39,23.917L36.45,13.873L36.75,13.547z M33.25,35.713V44h-18.5v-8.463l9.162-9.146L33.25,35.713z    M33.25,12.122l-9.338,9.322l-9.162-9.146V4h18.5V12.122z"/><polygon points="30.594,11.531 30.594,6.531 17.469,6.531 17.469,11.531 24.031,18  "/></g></svg>