<?xml version="1.0" ?><svg viewBox="0 0 60 60" xmlns="http://www.w3.org/2000/svg"><title/><g data-name="Layer 1" id="Layer_1"><path d="M51.78125,16.32617a8.01,8.01,0,0,0-2.50635-3.12012L43,8.50012V7a1.0004,1.0004,0,0,0-.55273-.89453l-12-6a1.0011,1.0011,0,0,0-.89453,0l-12,6A1.0004,1.0004,0,0,0,17,7V8.50012l-6.2749,4.70593a8.00442,8.00442,0,0,0-2.50586,3.12012c-2.77441,6.19824-2.70605,13.44531.19678,20.957,4.13037,10.68652,12.76123,19.1084,19.15137,21.9043a6.07932,6.07932,0,0,0,4.86475,0C38.82275,56.3916,47.45361,47.96973,51.584,37.2832,54.48682,29.77148,54.55518,22.52441,51.78125,16.32617ZM37.78369,14.85156c-.64258,2.20605-3.51025,3.89355-6.231,5.25391a1.00021,1.00021,0,0,0,.30566,1.88477,13.00078,13.00078,0,1,1-3.7168,0,1.00021,1.00021,0,0,0,.30566-1.88477c-2.7207-1.36035-5.58838-3.04785-6.231-5.25391a3.66842,3.66842,0,0,1,.22443-2.513l7.112,3.556a1.0011,1.0011,0,0,0,.89453,0l7.112-3.556A3.66842,3.66842,0,0,1,37.78369,14.85156ZM31,2.61816l9.30212,4.65106L31,8.81964ZM29,8.81964,19.69788,7.26923,29,2.61816Zm1,5.06219L21.39575,9.57971l8.4397,1.40662a.99708.99708,0,0,0,.3291,0l8.4397-1.40662ZM49.71826,36.5625C45.82715,46.63086,37.49463,54.79,31.62988,57.35547a4.07953,4.07953,0,0,1-3.26025,0C22.50537,54.79,14.17285,46.63086,10.28174,36.5625c-1.88721-4.88379-3.46045-12.21777-.23682-19.41992a5.99828,5.99828,0,0,1,1.88037-2.33691l6.18005-4.63483L20.65167,11.444a5.68419,5.68419,0,0,0-.35529,3.9671c.64307,2.208,2.6543,3.876,4.93066,5.22754A15.2106,15.2106,0,0,0,15,35a15,15,0,0,0,30,0A15.2106,15.2106,0,0,0,34.77295,20.63867c2.27637-1.35156,4.2876-3.01953,4.93066-5.22754a5.68419,5.68419,0,0,0-.35529-3.9671l2.54633-1.27319,6.18005,4.63483a6.00389,6.00389,0,0,1,1.88086,2.33691C53.17871,24.34473,51.60547,31.67871,49.71826,36.5625Z"/></g></svg>