<?xml version="1.0" ?><svg viewBox="0 0 60 60" xmlns="http://www.w3.org/2000/svg"><title/><g id="text"><text font-family="MyriadPro-Regular, Myriad Pro" font-size="9" transform="translate(3.54932 67.39014)"><tspan letter-spacing="0.00499em"/><tspan x="5.85889" y="0"/><tspan letter-spacing="-0.00602em" x="40.94971" y="0"/><tspan x="43.87451" y="0"/></text></g><g data-name="Layer 1" id="Layer_1"><path d="M59.76367.35449a.9986.9986,0,0,0-1.2373-.23486q-1.11768.60132-2.21389,1.1792C44.50323,7.55646,34.28986,12.989,34.01312,40.84711a9.9292,9.9292,0,0,0-8.02625.00006C25.71014,12.989,15.49677,7.55646,3.68748,1.29883Q2.59181.71875,1.47363.11963A.99961.99961,0,0,0,.21094,1.61377C6.875,10.18213,11,23.02,11,30a.99965.99965,0,0,0,.32129.73486L23.74921,42.20679a10,10,0,1,0,12.50159,0L48.67871,30.73486A.99965.99965,0,0,0,49,30c0-6.98,4.125-19.81787,10.78906-28.38623A.99924.99924,0,0,0,59.76367.35449ZM4.22656,3.8501c10.833,5.78516,19.25977,11.29736,19.751,35.84521L12.99512,29.55762C12.85547,22.95654,9.64355,12.33057,4.22656,3.8501ZM36.235,45H23.765A7.9793,7.9793,0,0,1,36.235,45ZM22.06946,51H37.93054a7.93316,7.93316,0,0,1-.51953,2H22.589A7.93316,7.93316,0,0,1,22.06946,51Zm0-2a7.93316,7.93316,0,0,1,.51953-2H37.411a7.93316,7.93316,0,0,1,.51953,2ZM30,58a7.98468,7.98468,0,0,1-6.235-3H36.235A7.98468,7.98468,0,0,1,30,58ZM47.00488,29.55762,36.02246,39.69531c.49121-24.54785,8.918-30.06006,19.751-35.84521C50.35645,12.33057,47.14453,22.95654,47.00488,29.55762Z"/></g></svg>