<?xml version="1.0" ?><svg viewBox="0 0 60 60" xmlns="http://www.w3.org/2000/svg"><title/><g id="text"><text font-family="MyriadPro-Regular, Myriad Pro" font-size="9" transform="translate(6.9458 67.39014)"><tspan letter-spacing="0.00602em" x="0.81885" y="10.7998"/><tspan x="5.31006" y="10.7998"/><tspan letter-spacing="-0.01004em" x="13.85059" y="10.7998"/><tspan x="16.70313" y="10.7998"/></text></g><g data-name="Layer 1" id="Layer_1"><path d="M33,22a3,3,0,1,0-3,3A3.00328,3.00328,0,0,0,33,22Zm-3,1a1,1,0,1,1,1-1A1.001,1.001,0,0,1,30,23Z"/><path d="M59.81152,21.41553A1.00044,1.00044,0,0,0,59,21H40a.99974.99974,0,0,0-1,1c0,4.98047-2.2254,10.10681-6,10.88678V28.32617a7,7,0,1,0-6,0v4.56061c-3.7746-.78-6-5.90631-6-10.88678a.99974.99974,0,0,0-1-1H1a.99944.99944,0,0,0-.94824,1.31641A9.86921,9.86921,0,0,0,4.17871,27H3a1.00015,1.00015,0,0,0-.78125,1.62451A25.94231,25.94231,0,0,0,12.05176,36H11a1.0002,1.0002,0,0,0-.625,1.78076c5.16479,4.1319,10.24768,5.12286,16.625,5.21069V59a.99974.99974,0,0,0,1,1H41a.99974.99974,0,0,0,1-1V54a.99974.99974,0,0,0-1-1H33V51h5a.99974.99974,0,0,0,1-1V46a.99974.99974,0,0,0-1-1H33V42.99146c6.37732-.08783,11.46021-1.0788,16.625-5.21069A1.0002,1.0002,0,0,0,49,36H47.94824a25.94231,25.94231,0,0,0,9.833-7.37549A1.00015,1.00015,0,0,0,57,27H55.82129a9.86921,9.86921,0,0,0,4.127-4.68359A.99822.99822,0,0,0,59.81152,21.41553ZM14.19434,38H17a1,1,0,0,0,.37109-1.92871C12.96387,34.30859,8.77148,32.63184,5.21777,29H8a.99995.99995,0,0,0,.44727-1.89453C6.94336,26.35352,4.10156,24.93262,2.6582,23H19.02637c.295,5.61951,3.061,11.25549,7.97363,11.9317v6.05371C22.13818,40.91431,18.08594,40.294,14.19434,38ZM37,47v2H32a.99974.99974,0,0,0-1,1v4a.99974.99974,0,0,0,1,1h8v3H29V27.769a1.00093,1.00093,0,0,0-.66211-1.05176,4.99963,4.99963,0,1,1,3.3291-.00146.99951.99951,0,0,0-.667.94287V46a.99974.99974,0,0,0,1,1ZM51.55273,27.10547A.99995.99995,0,0,0,52,29h2.78223c-3.55371,3.63184-7.74609,5.30859-12.15332,7.07129A1,1,0,0,0,43,38h2.80566C41.91406,40.294,37.86182,40.91431,33,40.98541V34.9317c4.9126-.67621,7.67865-6.31219,7.97363-11.9317H57.3418C55.89844,24.93262,53.05664,26.35352,51.55273,27.10547Z"/></g></svg>