<?xml version="1.0" ?><svg viewBox="0 0 60 60" xmlns="http://www.w3.org/2000/svg"><title/><g data-name="Layer 1" id="Layer_1"><path d="M47.93652,51.64844c-.00739-.01971-.02362-.03235-.0321-.05133a.983.983,0,0,0-.14691-.2348.95735.95735,0,0,0-.06451-.07379.98984.98984,0,0,0-.28674-.20258l-8.87793-3.94531c-4.271-3.55811-4.51355-13.32385-4.52734-18.29193a6.036,6.036,0,0,0,2.21368-1.06659,2.94416,2.94416,0,0,0,.67792,1.56458,2.72524,2.72524,0,0,0,2.07031.90869,3.32493,3.32493,0,0,0,1.48438-.36084,1.00012,1.00012,0,0,0-.89453-1.78906.94022.94022,0,0,1-1.16113-.08252c-.30664-.34717-.38672-1.16553.3623-2.34863C46.74023,19.07129,53.03516,6.96582,50.39063,3.25c-1.2724-1.78815-3.84644-1.52771-7.634.73792-1.11768-.06006-1.42187-.52917-1.92749-1.3468C40.14063,1.52637,39.19727,0,36,0a1,1,0,0,0,0,2c2.082,0,2.52051.71,3.12793,1.69287.061.09869.12665.20276.19366.30713H20.67841c.067-.10437.13269-.20844.19366-.30713C21.47949,2.71,21.918,2,24,2a1,1,0,0,0,0-2c-3.19727,0-4.14062,1.52637-4.8291,2.64111-.50562.81763-.80975,1.28674-1.92743,1.3468-3.78754-2.266-6.36072-2.52509-7.63409-.73792C6.96484,6.96582,13.25977,19.07129,21.24609,25.67432c.749,1.18311.66895,2.00146.3623,2.34863a.94253.94253,0,0,1-1.16113.08252,1.00012,1.00012,0,1,0-.89453,1.78906,3.32493,3.32493,0,0,0,1.48438.36084,2.72524,2.72524,0,0,0,2.07031-.90869,2.94416,2.94416,0,0,0,.67792-1.56458A6.036,6.036,0,0,0,25.999,28.84869c-.01379,4.96808-.25635,14.73383-4.52734,18.29193l-8.87793,3.94531-.00555.00354-.01587.01a.9913.9913,0,0,0-.26367.18726.96478.96478,0,0,0-.06842.07819.9826.9826,0,0,0-.14417.23126c-.00861.01929-.02509.03217-.03259.05225-.00342.00916-.00134.01855-.00446.02771A.99053.99053,0,0,0,12,52v4a1.00076,1.00076,0,0,0,.64844.93652l8,3A1.004,1.004,0,0,0,21,60H39a1.004,1.004,0,0,0,.35156-.06348l8-3A1.00076,1.00076,0,0,0,48,56V52a.99007.99007,0,0,0-.05908-.324C47.93781,51.66687,47.93994,51.65753,47.93652,51.64844Zm-3.57526.27283-5.058,1.89691L35.1734,49h2.61377ZM32.02417,31H27.97583c.0144-.70831.0213-1.38458.02319-2h4.002C32.00287,29.61542,32.00977,30.29169,32.02417,31Zm-4.1156,2h4.18286c.2182,4.69446.97229,10.399,3.60059,14H24.308C26.93628,43.399,27.69037,37.69446,27.90857,33Zm4.63232,16,4.28571,5H23.1734l4.28571-5ZM22,56H38v2H22ZM35,12a1,1,0,0,0-2,0c0,6.271-1.29,11-3,11s-3-4.729-3-11a1,1,0,0,0-2,0c0,5.42413-1.6106,9.99078-2.67133,10.8443C19.96869,18.51672,18.44586,11.60657,18.05994,6H41.94141c-.38611,5.60693-1.91174,12.51581-4.272,16.84283C36.60864,21.98529,35,17.42084,35,12ZM48.76074,4.40967c1.40265,1.97-2.157,10.26-8.05719,16.6413A53.74437,53.74437,0,0,0,43.96924,5.59418C46.87134,3.89276,48.355,3.84143,48.76074,4.40967Zm-37.52148,0c.40668-.56824,1.89038-.51654,4.7915,1.18445A53.74475,53.74475,0,0,0,19.29645,21.051C13.39624,14.66968,9.83661,6.3797,11.23926,4.40967ZM23.37817,24.508a8.48313,8.48313,0,0,0,2.46948-4.384C26.542,22.81348,27.78711,25,30,25s3.458-2.18652,4.15234-4.876a8.48355,8.48355,0,0,0,2.46942,4.38391C35.53192,25.989,34.30292,26.91925,32.95465,27H27.04559C25.69727,26.91943,24.46808,25.9892,23.37817,24.508ZM22.21283,49H24.8266l-4.12982,4.81818-5.058-1.89691ZM14,53.44336l6,2.25v1.86346l-6-2.25018Zm26,4.11346V55.69336l6-2.25v1.86328Z"/></g></svg>