<?xml version="1.0" ?><svg viewBox="0 0 60 60" xmlns="http://www.w3.org/2000/svg"><title/><g data-name="Layer 1" id="Layer_1"><path d="M60.0127,13.39355l-.06586-.0282a20.58326,20.58326,0,0,0-.48395-4.63684C58.43848,4.31445,55.9668,1.377,52.502.457c-3.65973-.97168-9.90454-.07318-18.93927,9.55542C33.48425,10.00983,33.40686,10,33.32813,10H26.67188c-.07867,0-.15613.00983-.2345.01245C17.40649.38586,11.1626-.51074,7.501.46094c-3.46387.91992-5.93555,3.8584-6.957,8.27246a20.5624,20.5624,0,0,0-.48206,4.61926l-.059.02527c.01849.04315.03723.08.05573.12268.05157,7.75665,3.79584,17.87469,12.91479,25.89862.73956,6.22827,3.07971,8.47821,5.509,10.80682a17.08989,17.08989,0,0,1,4.76074,6.624A4.91861,4.91861,0,0,0,27.81934,60h4.36133a4.91861,4.91861,0,0,0,4.57617-3.16992,17.08944,17.08944,0,0,1,4.76074-6.624c2.42987-2.32916,4.77063-4.57959,5.50958-10.8114,9.11737-7.99841,12.86316-18.107,12.92334-25.86426C59.97113,13.48279,59.99207,13.44165,60.0127,13.39355Zm-2.498-4.21289a18.6403,18.6403,0,0,1,.43457,3.92517c-2.18781,4.87823-4.33826,6.43182-6.58191,7.343a7.15033,7.15033,0,0,0-.37531-4.17267c2.08057-3.31073,2.83429-8.14783,2.12274-13.45795C55.24341,3.84564,56.789,6.05249,57.51465,9.18066ZM46.57715,25.11719a14.23991,14.23991,0,0,0-2.587-6.58435c2.91071-2.02936,4.5108-2.21088,5.03229-1.65491,1.17688,1.25745.14972,6.2099-2.22015,10.222C46.73438,26.45721,46.66119,25.80109,46.57715,25.11719ZM51.01984,2.21112c.8136,4.932.2373,9.574-1.51514,12.6416a3.71779,3.71779,0,0,0-2.33948-.12195,11.72889,11.72889,0,0,0-4.64-9.844C45.67749,2.84253,48.56323,1.91766,51.01984,2.21112ZM40.804,6.086a9.74338,9.74338,0,0,1,4.25781,9.44226,19.85524,19.85524,0,0,0-2.33643,1.45038l-4.19507-4.66125a6.98656,6.98656,0,0,0-2.66113-1.82886A44.3372,44.3372,0,0,1,40.804,6.086ZM24.13068,10.48859a6.98645,6.98645,0,0,0-2.66095,1.8288l-4.195,4.66119a19.81247,19.81247,0,0,0-2.33661-1.45111,9.74322,9.74322,0,0,1,4.25739-9.441A44.342,44.342,0,0,1,24.13068,10.48859ZM13.42285,25.11719c-.084.6839-.15723,1.34-.22516,1.98279-2.36987-4.01215-3.397-8.9646-2.22015-10.222.52148-.556,2.12164-.37445,5.03235,1.65491A14.24066,14.24066,0,0,0,13.42285,25.11719ZM17.47418,4.88727a11.72929,11.72929,0,0,0-4.6394,9.843,3.7189,3.7189,0,0,0-2.33936.12268C8.74335,11.78632,8.167,7.14581,8.97961,2.21515,11.43732,1.91992,14.32251,2.84387,17.47418,4.88727ZM6.8844,2.8244C6.17419,8.132,6.92822,12.96674,9.008,16.27618a7.14879,7.14879,0,0,0-.37543,4.17175c-2.223-.90558-4.37628-2.4668-6.57306-7.373a18.60535,18.60535,0,0,1,.43268-3.89038C3.2157,6.05847,4.75879,3.85272,6.8844,2.8244ZM9.16187,22.773a24.41731,24.41731,0,0,0,3.39771,6.99408A23.67645,23.67645,0,0,1,4.707,24.293l-.53711-.53711a30.89291,30.89291,0,0,1-1.68726-5.8244A12.03821,12.03821,0,0,0,9.16187,22.773ZM6.49792,28.53015a21.30613,21.30613,0,0,0,6.18567,3.41809l.12677.04224c-.0813,1.65894-.09589,3.14911-.0506,4.489A37.98593,37.98593,0,0,1,6.49792,28.53015ZM40.13379,48.7627a19.02642,19.02642,0,0,0-5.23828,7.335A2.92968,2.92968,0,0,1,32.18066,58H27.81934a2.92968,2.92968,0,0,1-2.71484-1.90234,19.02642,19.02642,0,0,0-5.23828-7.335c-3.52051-3.375-6.56152-6.29-4.459-23.40137a12.32415,12.32415,0,0,1,3.10254-6.76562l4.44629-4.94043A5.006,5.006,0,0,1,26.67188,12h6.65625a5.006,5.006,0,0,1,3.71582,1.65527l4.44629,4.94043a12.32415,12.32415,0,0,1,3.10254,6.76563C46.69531,42.47266,43.6543,45.3877,40.13379,48.7627Zm7.10675-12.291c.045-1.33783.03021-2.8255-.0509-4.4812l.12677-.04224a21.324,21.324,0,0,0,6.20239-3.43134A37.86918,37.86918,0,0,1,47.24054,36.47168Zm8.60522-12.73151-.5528.5528a23.67645,23.67645,0,0,1-7.85254,5.47412,24.41952,24.41952,0,0,0,3.3974-6.99323,12.03587,12.03587,0,0,0,6.68329-4.81622A30.85172,30.85172,0,0,1,55.84576,23.74017Z"/><path d="M41.293,30.293a4.64477,4.64477,0,0,1-3.78613,1.498A4.91687,4.91687,0,0,1,34.374,30.1416,10.56278,10.56278,0,0,1,37,28.81006V29a1,1,0,0,0,2,0v-.75336A10.3191,10.3191,0,0,1,41,28a1,1,0,0,0,0-2c-2.18359,0-6.46094,1.04688-8.707,3.293a.99978.99978,0,0,0-.125,1.26172,7.08158,7.08158,0,0,0,5.14258,3.22656c.2041.01953.40723.03027.61035.03027A6.758,6.758,0,0,0,42.707,31.707.99989.99989,0,0,0,41.293,30.293Z"/><path d="M32,40a.99942.99942,0,0,0,1-1V37a1,1,0,0,0-2,0v2A.99942.99942,0,0,0,32,40Z"/><path d="M41.44727,40.10547a1.00221,1.00221,0,0,0-1.3418.44727,16.01961,16.01961,0,0,1-3.72461,4.31348c-.0484.04437-.0968.08936-.14526.13379H23.7644c-.04846-.04443-.09686-.08942-.14526-.13379a16.01961,16.01961,0,0,1-3.72461-4.31348,1.00012,1.00012,0,1,0-1.78906.89453,17.52718,17.52718,0,0,0,4.16211,4.89355c1.69238,1.55176,3.291,3.01758,3.7627,4.90137A.99961.99961,0,0,0,27,52h6a.99961.99961,0,0,0,.96973-.75781c.47168-1.88379,2.07031-3.34961,3.7627-4.90137a17.52718,17.52718,0,0,0,4.16211-4.89355A1,1,0,0,0,41.44727,40.10547ZM32.2666,50H27.7334a9.50314,9.50314,0,0,0-1.93427-3h8.40173A9.50314,9.50314,0,0,0,32.2666,50Z"/><path d="M22.68945,33.78125A7.08158,7.08158,0,0,0,27.832,30.55469a.99978.99978,0,0,0-.125-1.26172C25.46094,27.04688,21.18359,26,19,26a1,1,0,0,0,0,2,10.3191,10.3191,0,0,1,2,.24664V29a1,1,0,0,0,2,0v-.18994a10.56278,10.56278,0,0,1,2.626,1.33154A4.91687,4.91687,0,0,1,22.49316,31.791,4.657,4.657,0,0,1,18.707,30.293.99989.99989,0,0,0,17.293,31.707a6.758,6.758,0,0,0,4.78613,2.10449C22.28223,33.81152,22.48535,33.80078,22.68945,33.78125Z"/><path d="M28,36a.99942.99942,0,0,0-1,1v2a1,1,0,0,0,2,0V37A.99942.99942,0,0,0,28,36Z"/><path d="M27.03809,22.27441A1.00108,1.00108,0,0,0,27.999,23a1.029,1.029,0,0,0,.27539-.03809,1.00122,1.00122,0,0,0,.6875-1.23633l-2-7a1.00029,1.00029,0,0,0-1.92383.54883Z"/><path d="M31.72559,22.96191A1.029,1.029,0,0,0,32.001,23a1.00108,1.00108,0,0,0,.96094-.72559l2-7a1.00029,1.00029,0,1,0-1.92383-.54883l-2,7A1.00122,1.00122,0,0,0,31.72559,22.96191Z"/></g></svg>