<?xml version="1.0" ?><svg viewBox="0 0 60 60" xmlns="http://www.w3.org/2000/svg"><title/><g data-name="Layer 1" id="Layer_1"><path d="M42,36a7,7,0,1,0,7,7A7.00849,7.00849,0,0,0,42,36Zm0,12a5,5,0,1,1,5-5A5.00589,5.00589,0,0,1,42,48Z"/><path d="M18,36a7,7,0,1,0,7,7A7.00849,7.00849,0,0,0,18,36Zm0,12a5,5,0,1,1,5-5A5.00589,5.00589,0,0,1,18,48Z"/><path d="M54.41406,53H58a1,1,0,0,0,.55469-1.832l-3.82227-2.54785,4.40918-.62988a1.00021,1.00021,0,0,0,.30566-1.88477l-3.84082-1.91992,3.71-1.2373a.99947.99947,0,0,0,0-1.89648l-4.29687-1.43262,4.62109-3.85059a1.00038,1.00038,0,0,0-.76465-1.76074l-5.832.72852L55.832,30.55469a.99991.99991,0,0,0-1.2793-1.44922l-6.01855,3.00879a4.17754,4.17754,0,0,1-2.93066.25293A14.35769,14.35769,0,0,0,42,32a11.69687,11.69687,0,0,0-10.7002,7H28.7002A11.69687,11.69687,0,0,0,18,32a14.35769,14.35769,0,0,0-3.60352.36719,4.177,4.177,0,0,1-2.93066-.25293L5.44727,29.10547A.99991.99991,0,0,0,4.168,30.55469l2.78809,4.18164-5.832-.72852a1.00038,1.00038,0,0,0-.76465,1.76074l4.62109,3.85059L.68359,41.05176a.99947.99947,0,0,0,0,1.89648l3.71,1.2373L.55273,46.10547A1.00021,1.00021,0,0,0,.8584,47.99023l4.40918.62988L1.44531,51.168A1,1,0,0,0,2,53H5.58594L.293,58.293A.99989.99989,0,1,0,1.707,59.707L8.41406,53h3.46777a3.53718,3.53718,0,0,1,1.39453.25391,10.68119,10.68119,0,0,0,4.03906.73828A12.379,12.379,0,0,0,28.68359,47h2.63281A12.35333,12.35333,0,0,0,42.4043,53.99512c.09277,0,.18652-.001.28027-.00293a10.67924,10.67924,0,0,0,4.041-.73926A3.5383,3.5383,0,0,1,48.11816,53h3.46777l6.707,6.707A.99989.99989,0,0,0,59.707,58.293Zm-8.47363-1.58594a8.82137,8.82137,0,0,1-3.30469.57813c-4.20312.09473-8.43164-2.67187-9.69043-6.31836A1.0002,1.0002,0,0,0,32,45H28a1.0002,1.0002,0,0,0-.94531.67383c-1.25977,3.64551-5.53516,6.41895-9.69043,6.31836a8.8241,8.8241,0,0,1-3.30273-.57715A5.51436,5.51436,0,0,0,11.88184,51H5.30273l3.252-2.168a1,1,0,0,0-.41309-1.82227l-3.83105-.54687,3.13672-1.56836a1,1,0,0,0-.13086-1.84277L4.16211,42l3.1543-1.05176a1.00037,1.00037,0,0,0,.32422-1.7168L4.26074,36.415l4.61523.57715A1.00007,1.00007,0,0,0,9.832,35.44531L7.9209,32.57813l2.65039,1.3252a6.17737,6.17737,0,0,0,4.3291.39941A12.53984,12.53984,0,0,1,18,34a9.57174,9.57174,0,0,1,9.04785,6.30469A.99951.99951,0,0,0,28,41h4a.99951.99951,0,0,0,.95215-.69531A9.57174,9.57174,0,0,1,42,34a12.53984,12.53984,0,0,1,3.09961.30273,6.17737,6.17737,0,0,0,4.3291-.39941l2.65039-1.3252L50.168,35.44531a1.00007,1.00007,0,0,0,.95605,1.54688l4.61523-.57715-3.37988,2.81641a1.00037,1.00037,0,0,0,.32422,1.7168L55.83789,42l-3.1543,1.05176a1,1,0,0,0-.13086,1.84277l3.13672,1.56836-3.83105.54688a1,1,0,0,0-.41309,1.82227L54.69727,51h-6.5791A5.51493,5.51493,0,0,0,45.94043,51.41406Z"/></g></svg>