<?xml version="1.0" ?><svg viewBox="0 0 60 60" xmlns="http://www.w3.org/2000/svg"><title/><g id="text"><text font-family="MyriadPro-Regular, Myriad Pro" font-size="9" transform="translate(3.63281 -49.60986)"><tspan letter-spacing="-0.00998em" x="10.80908" y="0"/><tspan x="13.66211" y="0"/><tspan letter-spacing="0.00998em" x="31.6709" y="0"/><tspan x="36.60254" y="0"/></text></g><g data-name="Layer 1" id="Layer_1"><path d="M57.938,22.64746c-1.70544-1.98535-5.53906-3.86-14.06805-1.88293-.18719-2.45526-.47614-5.07831-.88019-7.90613A1.00006,1.00006,0,0,0,42,12H4a1.00006,1.00006,0,0,0-.98975.8584C.68164,29.15625,1.92871,39.05859,7.05273,44.9668a15.87291,15.87291,0,0,0,5.52887,4.03754L8.58594,53H1a1.00012,1.00012,0,0,0-.44727,1.89453l10,5A1.00067,1.00067,0,0,0,11,60H35a1.00067,1.00067,0,0,0,.44727-.10547l10-5A1.00012,1.00012,0,0,0,45,53H37.41406L33.4184,49.00433A16.13376,16.13376,0,0,0,37.864,46.06409c9.76941-.62756,17.713-7.53564,20.54181-14.12073C59.99756,28.23633,59.82715,24.84863,57.938,22.64746Zm-13.83105,4.364c5.11255-1.30151,8.44641-1.1095,8.937.53546.73987,2.48364-4.16925,8.62439-10.78168,11.65613A36.00344,36.00344,0,0,0,44.10693,27.01141ZM18.76678,23.7348l-.60419-3.02191,3.02325-.8465.73694,2.94788Zm-1.76825,1.356a2.65621,2.65621,0,0,1-1.48145,2.19531,5.74805,5.74805,0,0,1-5.74023-.44531A9.86685,9.86685,0,0,1,5.75226,21h10.428ZM10,19V14h3v5ZM8,19H5.28888a25.67586,25.67586,0,0,1-.31757-5H8Zm22-3.67834V14h4.72015Zm-2,.56-3,.84V14h3Zm-4.15576,6.37219-.73175-2.92694,2.97986-.83435.72369,2.89453Zm4.89319-1.42719-.71838-2.8736,3.2135-.89978L31.9422,19.892Zm5.12622-1.49512-.70441-2.81775,2.97443-.83282.66254,2.79523Zm4.85516-1.41608-.65759-2.77423,3.1037-.869q.19592,1.45084.35126,2.82733ZM23,14v3.28162l-3,.84V14Zm-5,4.68164L16.863,19H15V14h3ZM34.76416,58H11.23584l-6-3H40.76416Zm-.17822-5H11.41406l3.2099-3.2099A27.20511,27.20511,0,0,0,23,51a27.20511,27.20511,0,0,0,8.376-1.2099ZM23,49c-6.5957,0-11.31738-1.748-14.436-5.34375-3.72717-4.29706-5.19208-11.09174-4.53369-21.5022a11.60946,11.60946,0,0,0,4.686,6.38306,8.51465,8.51465,0,0,0,4.47363,1.3125,6.78855,6.78855,0,0,0,3.29688-.81348,4.65381,4.65381,0,0,0,2.43854-3.26447L41.7276,19.121C42.884,31.26575,41.51355,38.95532,37.436,43.65625,34.31738,47.252,29.5957,49,23,49ZM56.56787,31.1543c-2.3186,5.39709-8.78693,11.28656-16.70361,12.655a17.74742,17.74742,0,0,0,1.21515-1.97113c7.96423-2.78326,15.18909-10.47345,13.88153-14.86255-.59686-2.00208-2.99847-3.92175-10.87616-2.014q-.02664-1.06192-.08624-2.17633c6.10919-1.46808,10.50787-1.06293,12.42188,1.165C57.79346,25.5498,57.84717,28.17578,56.56787,31.1543Z"/></g></svg>