<?xml version="1.0" ?><svg viewBox="0 0 60 60" xmlns="http://www.w3.org/2000/svg"><title/><g data-name="Layer 1" id="Layer_1"><path d="M33.26935,6.29132a4,4,0,1,0-6.5387,0A20.01524,20.01524,0,0,0,10,26V56a1.0004,1.0004,0,0,0,.55273.89453C14.79053,59.0127,20.96973,60,30,60s15.20947-.9873,19.44727-3.10547A1.0004,1.0004,0,0,0,50,56V26A20.01524,20.01524,0,0,0,33.26935,6.29132ZM48,26V51.36456a26.76758,26.76758,0,0,1-7,1.93732V24c0-7.267-1.69543-11.3562-4.52966-14.77734A18.01442,18.01442,0,0,1,48,26ZM27.16895,8.24512A17.95883,17.95883,0,0,1,29,8.05066V53.99323a78.47222,78.47222,0,0,1-8-.42883V24c0-8.01709,2.09277-11.67822,5.707-15.293ZM31,8.05066a17.95883,17.95883,0,0,1,1.83105.19446L33.293,8.707C36.90723,12.32178,39,15.98291,39,24V53.56439a78.47222,78.47222,0,0,1-8,.42883ZM28,4a2,2,0,1,1,2,2A2.002,2.002,0,0,1,28,4ZM23.52966,9.22266C20.69543,12.6438,19,16.733,19,24V53.30188a26.76758,26.76758,0,0,1-7-1.93732V26A18.01442,18.01442,0,0,1,23.52966,9.22266ZM30,58c-8.311,0-14.05957-.83789-18-2.63086V53.539C16.16357,55.21191,21.94525,56,30,56s13.83643-.78809,18-2.461v1.83014C44.05957,57.16211,38.311,58,30,58Z"/></g></svg>