<?xml version="1.0" ?><svg viewBox="0 0 60 60" xmlns="http://www.w3.org/2000/svg"><title/><g data-name="Layer 1" id="Layer_1"><path d="M59,27a.99974.99974,0,0,0-1,1,5.49473,5.49473,0,0,1-5,5,.99928.99928,0,0,0-.707.293l-8.8009,8.8009A25.82943,25.82943,0,0,0,33.26611,17.704l.62842-1.25677a.99969.99969,0,0,0-.33984-1.2793l-3-2a1.00107,1.00107,0,0,0-1.10937,0l-3,2a.99969.99969,0,0,0-.33984,1.2793l.62842,1.25677a25.82943,25.82943,0,0,0-10.226,24.38983L7.707,33.293A.99928.99928,0,0,0,7,33a5.49473,5.49473,0,0,1-5-5,1,1,0,0,0-2,0C0,38.62891,3.75586,51.83008,12.14648,57.36328a15.9432,15.9432,0,0,0,8.95117,2.67383,23.40214,23.40214,0,0,0,8.90228-1.95886,23.38974,23.38974,0,0,0,8.9024,1.95886,15.9432,15.9432,0,0,0,8.95117-2.67383C56.24414,51.83008,60,38.62891,60,28A.99974.99974,0,0,0,59,27ZM30,15.20166l1.71094,1.14063L30,19.76416l-1.71094-3.42187Zm-2.35706,4.32056,1.46252,2.925a1.00021,1.00021,0,0,0,1.78906,0l1.46252-2.925c7.58252,5.8335,10.82788,15.06653,8.71747,24.9892l-4.25317,4.25317-.8985-2.15033A.99974.99974,0,0,0,34.293,46.293l-2.1377,2.1377L30.832,46.44531a1.03785,1.03785,0,0,0-1.66406,0l-1.32324,1.98535L25.707,46.293a.99944.99944,0,0,0-1.63281.3291l-.87994,2.15814-4.2688-4.2688C16.81506,34.58875,20.06042,25.35571,27.64294,19.52222ZM30,55.58594l-5.27161-5.27161.629-1.54285L27.293,50.707a.99983.99983,0,0,0,1.53906-.15234L30,48.80273l1.168,1.752a1.00007,1.00007,0,0,0,.7334.44043C31.93457,50.998,31.96777,51,32,51a1.00027,1.00027,0,0,0,.707-.293l1.94531-1.94531.64,1.53192Zm-16.752.10742C6.76758,51.4209,3.24707,41.709,2.27832,32.92578a7.13352,7.13352,0,0,0,4.29,2.05762L28.21973,56.63477C22.459,58.76367,17.42676,58.44922,13.248,55.69336Zm33.50391,0c-4.17871,2.75684-9.21,3.07129-14.97168.94141L53.43164,34.9834a7.13352,7.13352,0,0,0,4.29-2.05762C56.75293,41.709,53.23242,51.4209,46.752,55.69336Z"/><path d="M23.37891,33.292c-.19139.62891-.3584,1.27441-.498,1.91895A1.00052,1.00052,0,0,1,21.9043,36a.98353.98353,0,0,1-.21191-.02246,1.0004,1.0004,0,0,1-.7666-1.18848c.15137-.69824.332-1.39746.53906-2.0791a1.0003,1.0003,0,1,1,1.91406.582Z"/><path d="M24.92676,29.459a1,1,0,0,1-1.7793-.91309,24.85659,24.85659,0,0,1,3.08789-4.64453,1.00017,1.00017,0,0,1,1.53125,1.28711A22.86726,22.86726,0,0,0,24.92676,29.459Z"/></g></svg>