<?xml version="1.0" ?><svg viewBox="0 0 60 60" xmlns="http://www.w3.org/2000/svg"><title/><g data-name="Layer 1" id="Layer_1"><path d="M44.19238,43.16211l-.457-.0896c-.99554-2.50171-.97528-4.6405,1.18359-9.679a.94153.94153,0,0,0,.03253-.15558,20.00005,20.00005,0,1,0-29.903,0,.94153.94153,0,0,0,.03253.15558c2.15881,5.03833,2.17926,7.17712,1.18372,9.67883l-.45764.08972C11.16309,44.07227,9,45.292,9,47v8c0,4.94336,20.14258,5,21,5s21-.05664,21-5V47C51,45.292,48.83691,44.07227,44.19238,43.16211ZM42.499,45.21875A99.64477,99.64477,0,0,1,30,46a99.64477,99.64477,0,0,1-12.499-.78125,10.74625,10.74625,0,0,0,.72491-9.08783,19.84961,19.84961,0,0,0,23.54822,0A10.74625,10.74625,0,0,0,42.499,45.21875ZM30,2A18,18,0,1,1,12,20,18.02062,18.02062,0,0,1,30,2ZM15.215,45.33276c-.03711.07428-.07159.144-.10956.22a.99962.99962,0,0,0,.72559,1.43262A93.6753,93.6753,0,0,0,30,48a93.6753,93.6753,0,0,0,14.16895-1.01465.99962.99962,0,0,0,.72559-1.43262c-.038-.07593-.07239-.14563-.1095-.21991,3.15137.715,4.12177,1.4574,4.22229,1.61932C48.56543,48.0459,41.83643,50,30,50c-11.80176,0-18.52264-1.94214-19-2.94287V47.035C11.125,46.77484,12.1109,46.03766,15.215,45.33276ZM30,58c-11.83643,0-18.56543-1.9541-19-3V49.36237C16.10858,51.96124,29.30927,52,30,52s13.8952-.0387,19.0022-2.63867l.00513,5.59082C48.56543,56.0459,41.83643,58,30,58Z"/><path d="M16.62744,18.13672a13.63506,13.63506,0,0,0,.33789,5.3916.99993.99993,0,1,1-1.93066.52148A15.53,15.53,0,0,1,14.5,20a15.69657,15.69657,0,0,1,.146-2.13672,1.00011,1.00011,0,0,1,1.98145.27344Z"/><path d="M26.27344,7.02051a13.60144,13.60144,0,0,0-8.10107,6.46582,1.00008,1.00008,0,0,1-1.751-.9668,15.61615,15.61615,0,0,1,9.30127-7.4209.99962.99962,0,1,1,.55078,1.92188Z"/></g></svg>