<?xml version="1.0" ?><svg viewBox="0 0 60 60" xmlns="http://www.w3.org/2000/svg"><title/><g data-name="Layer 1" id="Layer_1"><path d="M36,5h-.10242l1.06433-3.7251A1.00009,1.00009,0,0,0,36,0H24a1.00009,1.00009,0,0,0-.96191,1.2749L24.10242,5H24a4.00031,4.00031,0,0,0-1,7.87354V59a.99974.99974,0,0,0,1,1H36a.99974.99974,0,0,0,1-1V12.87354A4.00031,4.00031,0,0,0,36,5ZM34.67383,2,33.24609,7H26.75391L25.32617,2ZM35,58H25V25.98083c3.65112-.13007,4.9198-.97247,6.043-1.725A6.44618,6.44618,0,0,1,35,23.0249Zm1-47a.99974.99974,0,0,0-1,1v9.02429a8.34437,8.34437,0,0,0-5.06836,1.56946C28.95215,23.249,28.015,23.86951,25,23.98059V12a.99974.99974,0,0,0-1-1,2,2,0,0,1,0-4h.67383l.36426,1.2749A1.00094,1.00094,0,0,0,26,9h8a1.00094,1.00094,0,0,0,.96191-.7251L35.32617,7H36a2,2,0,0,1,0,4Z"/><path d="M27.99994,48a.99974.99974,0,0,0-1,1v1a1,1,0,0,0,2,0V49A.99974.99974,0,0,0,27.99994,48Z"/><path d="M27.99994,32a.99974.99974,0,0,0-1,1V45a1,1,0,0,0,2,0V33A.99974.99974,0,0,0,27.99994,32Z"/></g></svg>