<?xml version="1.0" ?><svg viewBox="0 0 60 60" xmlns="http://www.w3.org/2000/svg"><title/><g id="text"><text font-family="MyriadPro-Regular, Myriad Pro" font-size="9" transform="translate(8.04248 -49.60986)"><tspan letter-spacing="0.00602em"/><tspan x="7.29004" y="0"/><tspan letter-spacing="-0.00499em" x="11.62793" y="0"/><tspan x="14.52588" y="0"/><tspan letter-spacing="0.00602em" x="11.58301" y="10.7998"/><tspan x="18.87305" y="10.7998"/></text></g><g data-name="Layer 1" id="Layer_1"><path d="M47.68555,16.27148,46,14.68506V5a1.00067,1.00067,0,0,0-.10547-.44727l-2-4a1.04127,1.04127,0,0,0-1.78906,0l-2,4A1.00067,1.00067,0,0,0,40,5V9.038L30.68555.27148a1.00262,1.00262,0,0,0-1.37109,0L20,9.038V5a1.00067,1.00067,0,0,0-.10547-.44727l-2-4a1.04127,1.04127,0,0,0-1.78906,0l-2,4A1.00067,1.00067,0,0,0,14,5v9.68506l-1.68555,1.58643A1.00229,1.00229,0,0,0,12,17V59a.99974.99974,0,0,0,1,1H47a.99974.99974,0,0,0,1-1V17A1.00229,1.00229,0,0,0,47.68555,16.27148ZM43,3.23633l1,2V7H42V5.23633ZM42,9h2v3.80273l-2-1.88232ZM17,3.23633l1,2V7H16V5.23633ZM16,9h2v1.92041l-2,1.88232ZM42,58H40V21a.99976.99976,0,0,0-.33545-.74707l-9-8a.99805.99805,0,0,0-1.3291,0l-9,8A.99976.99976,0,0,0,20,21V58H18V19.4375L30,8.36133,42,19.4375ZM38,25H35.11993L38,22.94281Zm-5-.94281V17.00464l4.399,3.9104ZM31,25H29V15.22681l1-.88892,1,.88892Zm-9-2.05719L24.88007,25H22Zm5,1.11438L22.601,20.915,27,17.00464ZM22,27H38V58H22ZM46,58H44V19a.99745.99745,0,0,0-.32178-.73437l-13-12a1,1,0,0,0-1.35645,0l-13,12A.99745.99745,0,0,0,16,19V58H14V17.43164L30,2.373,46,17.43164Z"/><path d="M25.832,33.55469l2-3A1,1,0,1,0,26.168,29.44531l-2,3A1,1,0,1,0,25.832,33.55469Z"/><path d="M31.58105,30.18652a.99815.99815,0,0,0-1.395.23242l-5,7A1.00008,1.00008,0,0,0,26.814,38.58105l5-7A.99941.99941,0,0,0,31.58105,30.18652Z"/></g></svg>