<?xml version="1.0" ?><svg viewBox="0 0 60 60" xmlns="http://www.w3.org/2000/svg"><title/><g id="text"><text font-family="MyriadPro-Regular, Myriad Pro" font-size="9" transform="translate(3.73291 67.39014)"><tspan letter-spacing="0.00499em"/><tspan x="5.85889" y="0"/><tspan letter-spacing="-0.02599em" x="36.91699" y="0"/><tspan x="41.06592" y="0"/><tspan letter-spacing="-0.00998em" x="43.17188" y="0"/><tspan x="46.0249" y="0"/></text></g><g data-name="Layer 1" id="Layer_1"><path d="M36,53H33V51a1,1,0,0,0,0-2V47a1,1,0,0,0,0-2V42.9541a6.63927,6.63927,0,0,0,4.36621-1.98047c2.67725-2.84375,2.37109-7.91943,2.10059-12.39746-.17139-2.83936-.38477-6.37256.72949-6.5957A1,1,0,0,0,40,20H37.33978c2.25311-8.20825-1.36115-12.42743-6.71332-18.64258L29.75928.34912a1,1,0,0,0-1.75586.73389c.45361,5.44092-1.24609,7.50049-2.89014,9.49219C23.40143,12.6496,21.63977,14.79529,22.7326,20H20a1,1,0,0,0-.19629,1.98047c1.11426.22314.90088,3.75635.72949,6.5957-.27051,4.478-.57666,9.55371,2.10059,12.39746A6.63927,6.63927,0,0,0,27,42.9541V45a1,1,0,0,0,0,2v2a1,1,0,0,0,0,2v2H24c-3.4541,0-5,3.01367-5,6a1,1,0,0,0,1,1H40a1,1,0,0,0,1-1C41,56.01367,39.4541,53,36,53ZM26.65576,11.84814a12.41788,12.41788,0,0,0,3.39355-8.09375C34.84576,9.35791,37.39288,12.91376,35.25726,20H33a7.17078,7.17078,0,0,0-2.293-5.707.99964.99964,0,0,0-1.41406,0A7.17078,7.17078,0,0,0,27,20H24.78064C23.705,15.43658,25.01385,13.838,26.65576,11.84814ZM31,20H29a5.412,5.412,0,0,1,1-3.499A5.412,5.412,0,0,1,31,20ZM28,41a5.07663,5.07663,0,0,1-3.91016-1.397c-2.085-2.21484-1.80615-6.83252-1.56055-10.90625.16016-2.64648.30664-5.07373-.2373-6.69678H37.708c-.54395,1.623-.39746,4.05029-.2373,6.69678.24561,4.07373.52441,8.69141-1.56055,10.90625A5.07663,5.07663,0,0,1,32,41a1,1,0,0,0-1,1v3H29V42A1,1,0,0,0,28,41Zm1,6h2v2H29ZM21.08105,58c.19287-1.21875.83105-3,2.91895-3h4a1,1,0,0,0,1-1V51h2v3a1,1,0,0,0,1,1h4c2.08789,0,2.72607,1.78125,2.91895,3Z"/></g></svg>