<?xml version="1.0" ?><svg viewBox="0 0 60 60" xmlns="http://www.w3.org/2000/svg"><title/><g data-name="Layer 1" id="Layer_1"><path d="M46,32H42.71619L41.0459,4.71631A4.53515,4.53515,0,0,0,40.10547,2.106C38.39258,0,35.2334,0,30,0S21.60742,0,19.89551,2.106a4.529,4.529,0,0,0-.94141,2.61035L17.28381,32H14a.99942.99942,0,0,0-1,1v3a1,1,0,0,0,2,0V34h2.16138L16.002,52.93848A.99914.99914,0,0,0,17,54h1v3a3,3,0,0,0,6,0H36a3,3,0,0,0,6,0V54h1a.99914.99914,0,0,0,.998-1.06152L42.83862,34H45v2a1,1,0,0,0,2,0V33A.99942.99942,0,0,0,46,32ZM29,6V8H20.75665l.12244-2ZM39.97784,20H31V18h8.85541ZM39.12091,6l.12244,2H31V6Zm.24481,4,.36725,6H20.267l.36725-6ZM29,18v2H20.02216l.12244-2Zm0,4v2H19.77734l.12238-2Zm2,0h9.10028l.12238,2H31ZM38.8855,4H31V2.00165c4.03369.0072,6.52545.10168,7.55371,1.366A2.01661,2.01661,0,0,1,38.8855,4ZM29,2.00165V4H21.11475a2.01243,2.01243,0,0,1,.33252-.63232C22.47461,2.10333,24.96631,2.00885,29,2.00165ZM19.65491,26H40.34509l.36725,6H19.28766Zm3.931,8-2.293,2.293A.99989.99989,0,1,0,22.707,37.707L26.41406,34H29v6H18.798l.36725-6ZM41.93652,52H38V48h3.69171Zm-23.873,0,.24481-4H22v4ZM25,48a1,1,0,1,1-1,1A1.00068,1.00068,0,0,1,25,48Zm7,3H28V46h4Zm-4,2h4v2H28Zm7-5a1,1,0,1,1-1,1A1.00068,1.00068,0,0,1,35,48Zm-1-2V45a.99942.99942,0,0,0-1-1H27a.99942.99942,0,0,0-1,1v1H18.43073l.24481-4H41.32446l.24481,4Zm7.202-6H31V38H41.07959ZM21,58a1.00068,1.00068,0,0,1-1-1V54h2v3A1.00068,1.00068,0,0,1,21,58Zm3-6.18433a2.80518,2.80518,0,0,0,2,.00006V55H24ZM34,55V51.81567a2.80518,2.80518,0,0,0,2,.00006V55Zm6,2a1,1,0,0,1-2,0V54h2Zm.95715-21H31V34h9.83478Z"/><path d="M36,29a.99974.99974,0,0,0-1-1H25a1,1,0,0,0,0,2H35A.99974.99974,0,0,0,36,29Z"/></g></svg>