<?xml version="1.0" ?><svg viewBox="0 0 60 60" xmlns="http://www.w3.org/2000/svg"><title/><g data-name="Layer 1" id="Layer_1"><path d="M48.75,27H43V17.34912a6.73675,6.73675,0,0,0,.7876-6.32764,4.70763,4.70763,0,0,0-3.91553-2.96582A6.71818,6.71818,0,0,0,37.00732,4.2832a5.31858,5.31858,0,0,0-4.22217-.64453,4.54888,4.54888,0,0,0-1.97705-2.41895A8.05922,8.05922,0,0,0,26.58252.11426c-2.58057,0-4.5498.98535-5.27734,2.51465a4.73668,4.73668,0,0,0-4.14014.31348,4.70175,4.70175,0,0,0-2.0127,2.84473A5.034,5.034,0,0,0,10.94727,7.0918a3.87054,3.87054,0,0,0-1.10791,3.30859,4.50361,4.50361,0,0,0-2.61914,3.31055A4.14822,4.14822,0,0,0,9,17.50024V54a6.18047,6.18047,0,0,0,6.3335,6h21.333A6.18047,6.18047,0,0,0,43,54h5.75A3.13605,3.13605,0,0,0,52,51V30A3.13605,3.13605,0,0,0,48.75,27ZM41,23H11V18H41Zm2,10h2.75c.15234.001.24854.05859.25.002l.02295,14.91211A.396.396,0,0,1,45.75,48H43ZM11.31641,11.94824a.99927.99927,0,0,0,.63232-1.26465,2.00268,2.00268,0,0,1,.4126-2.17676,3.30657,3.30657,0,0,1,3.32227-.55859A.99944.99944,0,0,0,17,7a2.83993,2.83993,0,0,1,1.21631-2.35645,3.41546,3.41546,0,0,1,3.33643.251A1.0001,1.0001,0,0,0,23,4c0-1.22461,1.8457-1.88574,3.58252-1.88574a6.13875,6.13875,0,0,1,3.165.80078A2.38173,2.38173,0,0,1,31,5a1.0001,1.0001,0,0,0,1.44727.89453,3.41157,3.41157,0,0,1,3.5083.08984A4.35891,4.35891,0,0,1,38,9a.99974.99974,0,0,0,1,1,2.88207,2.88207,0,0,1,2.93994,1.78711A4.82116,4.82116,0,0,1,41.52643,16H10.34454a2.28079,2.28079,0,0,1-1.1424-2.02441A2.83265,2.83265,0,0,1,11.31641,11.94824ZM36.6665,58H15.3335A4.18113,4.18113,0,0,1,11,54V25H41V54A4.18113,4.18113,0,0,1,36.6665,58ZM50,51a1.14711,1.14711,0,0,1-1.25,1H43V50h2.75A2.13865,2.13865,0,0,0,48,48V33a2.13865,2.13865,0,0,0-2.25-2H43V29h5.75A1.14711,1.14711,0,0,1,50,30Z"/><path d="M17,28a3.00328,3.00328,0,0,0-3,3V52a3,3,0,0,0,6,0V31A3.00328,3.00328,0,0,0,17,28Zm1,24a1,1,0,0,1-2,0V31a1,1,0,0,1,2,0Z"/><path d="M26,28a3.00328,3.00328,0,0,0-3,3V52a3,3,0,0,0,6,0V31A3.00328,3.00328,0,0,0,26,28Zm1,24a1,1,0,0,1-2,0V31a1,1,0,0,1,2,0Z"/><path d="M35,28a3.00328,3.00328,0,0,0-3,3V52a3,3,0,0,0,6,0V31A3.00328,3.00328,0,0,0,35,28Zm1,24a1,1,0,0,1-2,0V31a1,1,0,0,1,2,0Z"/><path d="M18,14a.99974.99974,0,0,0,1-1c0-1.084,1.374-2,3-2a1,1,0,0,0,0-2c-2.75684,0-5,1.79395-5,4A.99974.99974,0,0,0,18,14Z"/><path d="M32,12a1.001,1.001,0,0,1,1,1,1,1,0,0,0,2,0,3.00328,3.00328,0,0,0-3-3,1,1,0,0,0,0,2Z"/><path d="M26,7a2.11529,2.11529,0,0,1,1.02344.21582A1.00007,1.00007,0,0,0,29,7c0-1.15918-1.26172-2-3-2a1,1,0,0,0,0,2Z"/></g></svg>