<?xml version="1.0" ?><svg viewBox="0 0 60 60" xmlns="http://www.w3.org/2000/svg"><title/><g id="text"><text font-family="MyriadPro-Regular, Myriad Pro" font-size="9" transform="translate(3.93555 67.39014)"><tspan letter-spacing="-0.04096em" x="26.90039" y="0"/><tspan letter-spacing="-0.07102em" x="28.43945" y="0"/><tspan x="32.27344" y="0"/></text></g><g data-name="Layer 1" id="Layer_1"><path d="M29.7998.3999a.99957.99957,0,0,0-1.7832.77881c3.44531,18.95459-1.46777,27.75293-6.21973,36.26172C18.30176,43.69971,15,49.61133,15,59a.99993.99993,0,0,0,1.55469.832L18.873,58.28662,20.293,59.707a.99947.99947,0,0,0,1.67676-.46436l.57227-2.28662,2.751,2.751a.99876.99876,0,0,0,1.1543.1875L28,59.11816l1.55273.77637a1.00017,1.00017,0,0,0,1.1543-.1875L32,58.41406l1.293,1.293a.99972.99972,0,0,0,1.60156-.25977L36.27441,56.688,39.293,59.707A.99991.99991,0,0,0,41,59C41,30.0249,37.23145,10.30908,29.7998.3999Zm.92188,5.28662c1.99878,3.88147,3.96558,9.43591,5.481,17.36383a8.4575,8.4575,0,0,0-3.50049,1.37054c-1.35193.81262-1.78076,1.05731-2.93445-.072A48.65439,48.65439,0,0,0,30.72168,5.68652ZM36.707,54.293a.99972.99972,0,0,0-1.60156.25977L33.72559,57.312,32.707,56.293a.99964.99964,0,0,0-1.41406,0L29.80273,57.7832l-1.35547-.67773a1.0011,1.0011,0,0,0-.89453,0l-1.35547.67773L22.707,54.293a.99947.99947,0,0,0-1.67676.46436L20.458,57.04395l-.751-.751a.9989.9989,0,0,0-1.26172-.125l-1.39551.93018c.418-7.80322,3.375-13.09912,6.49316-18.68262a65.30042,65.30042,0,0,0,5.613-11.98108,3.37119,3.37119,0,0,0,1.94653.67786,5.20276,5.20276,0,0,0,2.62988-.97754,6.53768,6.53768,0,0,1,2.83447-1.09027,196.06112,196.06112,0,0,1,2.42432,31.53217Z"/></g></svg>